#!OML:ASF H:\ManfredObstacles\Project 1\Capture day 1\Session 1\Male.ASF
:FULLY-SPECIFIED
:DEGREES
385
root -7.41323 16.3918 4.35314 -88.7423 -92.8656 -264.016
lowerback -9.77685 0.0766252 -1.27678
upperback 2.03936 0.287377 -0.340376
thorax 7.64609 0.0903405 0.406678
lowerneck -0.416218 -0.759433 -5.44635
upperneck -2.37416 -0.921554 7.58638
head -0.616958 -0.483592 3.41069
rclavicle 1.98785e-015 1.11319e-014
rhumerus -29.7663 -18.1995 -80.638
rradius 27.8508
rwrist 29.361
rhand 1.05005 -6.2153
rfingers 7.12502
rthumb 26.5957 -34.3676
lclavicle 1.98785e-015 1.11319e-014
lhumerus -34.6928 29.7385 69.5569
lradius 14.1979
lwrist -45.1326
lhand -7.2472 8.53518
lfingers 7.12502
lthumb 18.6331 37.6628
rfemur -6.59525 -5.2208 25.5636
rtibia 23.305
rfoot -23.3106 13.8164
rtoes 14.7346
lfemur -28.837 -1.26209 -16.9403
ltibia 14.7827
lfoot 7.80547 -4.10497
ltoes 0.538118
386
root -7.63358 16.3776 4.38025 -88.002 -92.6933 -264.803
lowerback -10.0938 0.098793 -1.47483
upperback 2.01784 0.353007 -0.416484
thorax 7.80419 0.113975 0.449735
lowerneck -0.467056 -0.73303 -5.41044
upperneck -2.12502 -0.894724 7.62342
head -0.530364 -0.467781 3.41439
rclavicle -1.98785e-015 4.77083e-015
rhumerus -29.8902 -18.2621 -80.5789
rradius 27.6977
rwrist 29.473
rhand 1.05331 -6.08021
rfingers 7.12502
rthumb 26.5989 -34.2321
lclavicle -1.98785e-015 4.77083e-015
lhumerus -35.4328 32.2101 67.716
lradius 13.4279
lwrist -48.2148
lhand -7.50826 8.46797
lfingers 7.12502
lthumb 18.3819 37.6194
rfemur -5.46372 -4.35222 25.3169
rtibia 22.9816
rfoot -23.7868 12.5901
rtoes 12.681
lfemur -28.3401 -1.05035 -17.4993
ltibia 14.9018
lfoot 9.06136 -4.72579
ltoes 0.681152
387
root -7.85415 16.3645 4.40863 -89.1192 -92.451 -263.781
lowerback -10.3414 0.0697524 -1.75482
upperback 2.00739 0.364623 -0.541713
thorax 7.93514 0.108431 0.477852
lowerneck -0.542186 -0.733874 -5.38398
upperneck -1.93438 -0.901409 7.78099
head -0.455383 -0.469995 3.46227
rclavicle 4.96962e-016 -1.43125e-014
rhumerus -30.1898 -18.7334 -80.3706
rradius 27.6164
rwrist 29.9802
rhand 1.17739 -5.66702
rfingers 7.12502
rthumb 26.7176 -33.8008
lclavicle 4.96962e-016 -1.43125e-014
lhumerus -36.3946 34.9563 65.5204
lradius 12.7979
lwrist -51.462
lhand -7.47467 8.26932
lfingers 7.12502
lthumb 18.4143 37.4177
rfemur -4.42357 -3.41897 24.9981
rtibia 22.93
rfoot -24.1167 11.5477
rtoes 11.8128
lfemur -27.9228 -0.807022 -18.1366
ltibia 15.7443
lfoot 9.79128 -5.33086
ltoes 3.98703
388
root -8.07341 16.3599 4.43753 -94.0184 -92.0928 -259.013
lowerback -10.5435 -0.0371301 -2.23364
upperback 2.01082 0.299934 -0.67392
thorax 8.05634 0.0560659 0.596988
lowerneck -0.654457 -0.760463 -5.34635
upperneck -1.7345 -0.942619 7.86917
head -0.368605 -0.487901 3.48367
rclavicle 0 -7.95139e-016
rhumerus -30.5201 -19.2649 -80.1615
rradius 27.5363
rwrist 30.5179
rhand 1.3304 -5.20556
rfingers 7.12502
rthumb 26.864 -33.3169
lclavicle 0 -7.95139e-016
lhumerus -37.4581 37.3658 63.4858
lradius 12.4551
lwrist -54.1617
lhand -7.36504 8.17268
lfingers 7.12502
lthumb 18.5197 37.3111
rfemur -3.56081 -2.59499 24.5919
rtibia 23.2509
rfoot -24.3593 10.4311
rtoes 10.5151
lfemur -27.6357 -0.62251 -18.8646
ltibia 16.9167
lfoot 6.76607 -4.59039
ltoes -13.9229
389
root -8.28635 16.3608 4.46325 -104.349 -91.8181 -248.823
lowerback -10.6726 -0.206995 -2.79099
upperback 2.00956 0.156612 -0.74111
thorax 8.13397 -0.0398148 0.814773
lowerneck -0.638968 -0.802209 -5.44471
upperneck -1.57693 -1.00594 8.03016
head -0.315301 -0.518873 3.55805
rclavicle 2.68359e-015 -7.95139e-015
rhumerus -30.9002 -19.8401 -79.9025
rradius 27.4092
rwrist 30.961
rhand 1.37154 -4.86222
rfingers 7.12502
rthumb 26.9034 -32.9675
lclavicle 2.68359e-015 -7.95139e-015
lhumerus -38.2205 39.0015 62.0957
lradius 12.1461
lwrist -55.8503
lhand -7.72299 8.32979
lfingers 7.12502
lthumb 18.1754 37.5006
rfemur -2.97733 -1.92847 24.3054
rtibia 24.0827
rfoot -24.499 8.91793
rtoes 7.46775
lfemur -27.3281 -0.534657 -19.5047
ltibia 18.0809
lfoot 6.75402 -5.92982
ltoes -6.95505
390
root -8.49061 16.3607 4.48685 -115.473 -91.7152 -237.986
lowerback -10.6069 -0.282404 -3.20053
upperback 2.0737 0.117289 -0.847503
thorax 8.1678 -0.0774164 0.925277
lowerneck -0.498498 -0.901082 -5.4293
upperneck -1.56892 -1.14508 8.27946
head -0.325986 -0.593551 3.64286
rclavicle 1.39149e-015 1.66979e-014
rhumerus -31.4418 -20.9216 -79.4801
rradius 27.2415
rwrist 31.3701
rhand 1.05491 -4.94207
rfingers 7.12502
rthumb 26.6004 -33.0937
lclavicle 1.39149e-015 1.66979e-014
lhumerus -38.7064 40.5419 60.7673
lradius 11.741
lwrist -57.6433
lhand -8.08714 8.41018
lfingers 7.12502
lthumb 17.825 37.6133
rfemur -2.57895 -1.32502 24.1564
rtibia 25.6005
rfoot -24.2997 7.6625
rtoes 5.95076
lfemur -26.682 -0.500706 -19.9448
ltibia 19.008
lfoot 5.95616 -6.70326
ltoes -6.84054
391
root -8.68876 16.366 4.51109 -132.428 -91.476 -221.315
lowerback -10.5358 -0.263233 -3.76677
upperback 2.15017 0.235543 -1.11622
thorax 8.20615 -0.0432773 0.978698
lowerneck -0.3162 -1.06937 -5.21381
upperneck -1.62405 -1.37685 8.47866
head -0.358374 -0.717714 3.67184
rclavicle 8.94531e-016 4.6118e-014
rhumerus -32.1208 -22.3283 -78.9657
rradius 26.9658
rwrist 31.7127
rhand 0.485733 -5.4888
rfingers 7.12502
rthumb 26.0555 -33.7219
lclavicle 8.94531e-016 4.6118e-014
lhumerus -38.6854 41.3609 60.045
lradius 11.5468
lwrist -58.7598
lhand -7.91285 8.46225
lfingers 7.12502
lthumb 17.9927 37.65
rfemur -2.55411 -0.842938 23.7114
rtibia 27.829
rfoot -23.77 6.89908
rtoes 6.03272
lfemur -25.9151 -0.581198 -20.5621
ltibia 19.7414
lfoot 4.9603 -7.1835
ltoes -6.59007
392
root -8.87929 16.3752 4.54281 -147.86 -91.4249 -205.984
lowerback -10.5891 -0.261665 -4.1545
upperback 2.15056 0.302633 -1.27696
thorax 8.23541 -0.0270702 1.03748
lowerneck -0.171872 -1.23552 -5.24188
upperneck -1.59716 -1.60662 8.67609
head -0.356188 -0.837027 3.74736
rclavicle -4.77083e-015 2.22639e-014
rhumerus -32.8051 -23.3667 -78.3996
rradius 26.65
rwrist 31.9064
rhand 0.253181 -5.76094
rfingers 7.12502
rthumb 25.8329 -34.0266
lclavicle -4.77083e-015 2.22639e-014
lhumerus -37.8283 40.5446 60.9693
lradius 11.6436
lwrist -57.6846
lhand -7.67638 8.67032
lfingers 7.12502
lthumb 18.2202 37.837
rfemur -3.18019 -0.871389 23.3132
rtibia 30.6725
rfoot -22.7744 6.41139
rtoes 4.64057
lfemur -25.3256 -0.494772 -21.0836
ltibia 20.3482
lfoot 4.21676 -7.97297
ltoes -4.97298
393
root -9.0634 16.3848 4.58282 -142.457 -91.5833 -211.473
lowerback -10.5838 -0.275451 -3.97576
upperback 2.10797 0.253324 -1.19549
thorax 8.18809 -0.0425452 1.01528
lowerneck -0.158416 -1.31876 -5.25844
upperneck -1.40748 -1.72887 8.65514
head -0.288485 -0.895627 3.74159
rclavicle 5.96354e-016 1.74931e-014
rhumerus -33.4789 -23.9524 -77.7823
rradius 26.3697
rwrist 32.1714
rhand 0.508231 -5.56635
rfingers 7.12502
rthumb 26.0771 -33.7963
lclavicle 5.96354e-016 1.74931e-014
lhumerus -36.7939 38.9067 62.6093
lradius 11.9674
lwrist -55.5139
lhand -7.61484 8.75281
lfingers 7.12502
lthumb 18.2794 37.9139
rfemur -4.22844 -1.47399 23.3506
rtibia 34.0103
rfoot -21.1087 6.3964
rtoes 3.02632
lfemur -24.7626 -0.114918 -21.0831
ltibia 20.8553
lfoot 3.5216 -8.87205
ltoes -4.18303
